<?xml version="1.0" encoding="utf-8"?>
<!DOCTYPE svg PUBLIC "-//W3C//DTD SVG 1.0//EN" "http://www.w3.org/TR/2001/REC-SVG-20010904/DTD/svg10.dtd">
<svg version="1.0" id="Layer_1" xmlns="http://www.w3.org/2000/svg" xmlns:xlink="http://www.w3.org/1999/xlink" x="0px" y="0px"
	 width="40px" height="40px" viewBox="0 0 40 40" enable-background="new 0 0 40 40" xml:space="preserve">
<path fill="#FFC5B8" d="M20.25,1.5h-0.5C9.402,1.5,1,9.902,1,20.25v-0.5C1,30.098,9.402,38.5,19.75,38.5h0.5
	C30.598,38.5,39,30.098,39,19.75v0.5C39,9.902,30.598,1.5,20.25,1.5z M19.75,0.5h0.5C31.148,0.5,40,9.352,40,20.25v-0.5
	c0,10.898-8.852,19.75-19.75,19.75h-0.5C8.852,39.5,0,30.648,0,19.75v0.5C0,9.352,8.852,0.5,19.75,0.5z"/>
<g>
	<defs>
		<path id="SVGID_1_" d="M19.75,1.5h0.5C30.598,1.5,39,9.902,39,20.25v-0.5c0,10.348-8.402,18.75-18.75,18.75h-0.5
			C9.402,38.5,1,30.098,1,19.75v0.5C1,9.902,9.402,1.5,19.75,1.5z"/>
	</defs>
	<clipPath id="SVGID_2_">
		<use xlink:href="#SVGID_1_"  overflow="visible"/>
	</clipPath>
	<g clip-path="url(#SVGID_2_)">
		<defs>
			<rect id="SVGID_3_" x="-69" y="-61.5" width="595" height="842"/>
		</defs>
		<clipPath id="SVGID_4_">
			<use xlink:href="#SVGID_3_"  overflow="visible"/>
		</clipPath>
		<g clip-path="url(#SVGID_4_)">
			<path fill="#FFC5B8" d="M19.226,4.459c0.81,0,1.278,0.27,1.602,0.684c0.198,0.27,0.306,0.612,0.306,1.008
				c0,0.342-0.09,0.738-0.27,1.134c-0.918,1.945-2.899,3.673-4.717,4.375c-0.144,0.054-0.27,0.09-0.396,0.09
				c-0.252,0-0.486-0.108-0.612-0.342c-0.072-0.126-0.108-0.27-0.108-0.396c0-0.306,0.18-0.559,0.45-0.685
				c1.584-0.684,3.097-1.962,3.925-3.493c0.072-0.162,0.126-0.324,0.126-0.45c0-0.252-0.18-0.432-0.594-0.432H7.09
				c-0.432,0-0.648-0.271-0.648-0.738c0-0.468,0.234-0.756,0.648-0.756H19.226z M14.058,8.312c-0.018,3.151-0.414,4.934-1.134,6.374
				c-0.99,1.999-2.719,3.313-4.681,3.961C8.116,18.702,7.99,18.72,7.864,18.72c-0.288,0-0.504-0.144-0.648-0.468
				C7.162,18.125,7.144,18,7.144,17.892c0-0.288,0.162-0.522,0.522-0.648c1.71-0.576,3.133-1.729,3.853-3.277
				c0.612-1.314,0.918-2.827,0.918-5.618c0-0.522,0.342-0.774,0.828-0.774S14.058,7.827,14.058,8.312z"/>
			<path fill="#FFC5B8" d="M22.336,6.278c-0.432,0-0.666-0.306-0.666-0.792c0-0.432,0.252-0.72,0.666-0.72l9.164-0.09
				c0.775,0,1.279,0.252,1.604,0.72c0.144,0.252,0.233,0.541,0.233,0.9c0,0.306-0.071,0.667-0.198,1.044
				c-0.594,1.603-1.602,3.133-2.862,4.681c2.017,1.567,3.493,2.737,5.005,4.483c0.162,0.198,0.252,0.414,0.252,0.63
				s-0.09,0.414-0.233,0.576c-0.162,0.18-0.396,0.27-0.63,0.27s-0.469-0.09-0.648-0.288c-1.351-1.621-2.755-2.971-4.754-4.537
				c-1.998,2.196-4.825,3.943-7.615,4.987c-0.145,0.054-0.289,0.09-0.433,0.09c-0.306,0-0.559-0.144-0.667-0.45
				c-0.036-0.09-0.054-0.198-0.054-0.306c0-0.324,0.198-0.648,0.54-0.774c2.18-0.828,4.466-2.125,6.393-3.889
				c1.872-1.729,3.367-3.835,4.068-5.852c0.055-0.162,0.091-0.288,0.091-0.396c0-0.27-0.198-0.396-0.648-0.396L22.336,6.278z"/>
		</g>
		<g clip-path="url(#SVGID_4_)">
			<path fill="#FFC5B8" d="M27.731,24.633c-0.144,1.926-0.522,3.564-1.152,5.041c-0.937,2.161-2.503,3.943-4.627,5.203
				c-0.162,0.091-0.324,0.127-0.468,0.127c-0.253,0-0.469-0.127-0.631-0.379c-0.09-0.125-0.126-0.27-0.126-0.396
				c0-0.271,0.144-0.522,0.396-0.666c1.928-1.135,3.313-2.72,4.105-4.609c0.522-1.243,0.828-2.647,0.973-4.304h-4.303
				c-0.451,0-0.667-0.234-0.667-0.684c0-0.451,0.216-0.721,0.685-0.721l4.393-0.018c0.055-0.955,0.072-1.729,0.072-2.611
				c0-0.468,0.289-0.702,0.757-0.702c0.45,0,0.792,0.252,0.792,0.72c-0.018,0.9-0.055,1.693-0.09,2.593l4.934-0.019
				c1.296,0,1.963,0.702,1.944,1.891c-0.054,2.629-0.252,4.844-0.505,6.481c-0.377,2.396-1.188,3.17-2.934,3.17
				c-0.883,0-1.819-0.108-2.485-0.324c-0.306-0.108-0.486-0.379-0.486-0.721c0-0.072,0-0.162,0.019-0.234
				c0.072-0.359,0.324-0.539,0.63-0.539c0.071,0,0.162,0.018,0.252,0.035c0.54,0.162,1.278,0.271,1.891,0.271
				c0.937,0,1.296-0.288,1.62-2.053c0.271-1.495,0.414-3.565,0.469-5.762c0-0.019,0-0.054,0-0.072c0-0.594-0.217-0.72-0.9-0.72
				H27.731z"/>
		</g>
	</g>
</g>
</svg>
